<svg xmlns="http://www.w3.org/2000/svg" viewBox="0 0 1440 420" role="img" aria-labelledby="title desc">
  <title id="title">Courtroom Header Illustration</title>
  <desc id="desc">Illustration of a courtroom with judge bench, columns, and audience seating.</desc>
  <defs>
    <linearGradient id="bg" x1="0" y1="0" x2="1" y2="1">
      <stop offset="0%" stop-color="#f7e4c5" />
      <stop offset="55%" stop-color="#e8d6bc" />
      <stop offset="100%" stop-color="#cfb89a" />
    </linearGradient>
    <linearGradient id="wood" x1="0" y1="0" x2="0" y2="1">
      <stop offset="0%" stop-color="#7a4f31" />
      <stop offset="100%" stop-color="#5e3a22" />
    </linearGradient>
  </defs>
  <rect width="1440" height="420" fill="url(#bg)" />
  <rect x="0" y="330" width="1440" height="90" fill="#7f5f44" opacity="0.45" />

  <rect x="145" y="94" width="170" height="236" rx="8" fill="#f1e6d6" />
  <rect x="1125" y="94" width="170" height="236" rx="8" fill="#f1e6d6" />
  <rect x="185" y="75" width="90" height="250" rx="7" fill="#e1d4c2" />
  <rect x="1165" y="75" width="90" height="250" rx="7" fill="#e1d4c2" />

  <rect x="420" y="126" width="600" height="185" rx="12" fill="url(#wood)" />
  <rect x="455" y="152" width="530" height="24" rx="8" fill="#8f6344" opacity="0.8" />
  <rect x="472" y="188" width="496" height="84" rx="8" fill="#4d3020" opacity="0.7" />

  <rect x="632" y="88" width="178" height="22" rx="8" fill="#21314a" />
  <circle cx="721" cy="99" r="8" fill="#f2e2bb" />

  <g fill="#60412d" opacity="0.92">
    <rect x="300" y="312" width="160" height="18" rx="4" />
    <rect x="300" y="340" width="160" height="18" rx="4" />
    <rect x="300" y="368" width="160" height="18" rx="4" />

    <rect x="980" y="312" width="160" height="18" rx="4" />
    <rect x="980" y="340" width="160" height="18" rx="4" />
    <rect x="980" y="368" width="160" height="18" rx="4" />
  </g>

  <rect x="530" y="307" width="380" height="15" rx="5" fill="#3c2a1e" opacity="0.65" />
</svg>
